<mxfile host="app.diagrams.net" modified="2023-08-01T06:19:25.046Z" agent="Mozilla/5.0 (Macintosh; Intel Mac OS X 10_15_7) AppleWebKit/537.36 (KHTML, like Gecko) Chrome/115.0.0.0 Safari/537.36" version="21.3.7" etag="g9bBI3pn5ZyKEJpsf42g" type="github">
  <diagram name="第 1 页" id="WC7i8nPKRrfcBwFTHOZt">
    <mxGraphModel>
      <root>
        <mxCell id="0" />
        <mxCell id="1" parent="0" />
      </root>
    </mxGraphModel>
  </diagram>
</mxfile>
